<svg xmlns="http://www.w3.org/2000/svg" width="32.4" height="28.642"><path d="M151.526 181.416a3.985 3.985 0 0 1-2.363-1.197 3.913 3.913 0 0 1-1.137-2.602c-.1-1.94 1.196-3.648 3.128-4.121.258-.063.395-.076.857-.077.74-.003 1.233.103 1.792.384 1.37.69 2.197 1.96 2.255 3.462.059 1.496-.676 2.843-1.982 3.631-.728.44-1.669.632-2.55.52zm-4.172-9.02c-.178-.088-1.744-1.654-1.828-1.829-.057-.115-.064-.185-.054-.533.009-.33.022-.424.079-.532.079-.153.699-.76 1.142-1.12a8.847 8.847 0 0 1 3.475-1.688c.674-.153 1.074-.194 1.891-.194.818 0 1.218.04 1.892.194 1.222.277 2.5.899 3.475 1.689.5.405 1.087.99 1.149 1.144.068.171.099.828.045.994-.05.158-1.661 1.783-1.86 1.876a.942.942 0 0 1-.676.005c-.077-.035-.217-.156-.34-.294a5.317 5.317 0 0 0-1.138-.932 4.944 4.944 0 0 0-5.728.45 5.685 5.685 0 0 0-.504.482c-.123.138-.262.26-.34.294-.18.082-.509.08-.68-.006zm-4.705-4.682c-.17-.086-1.833-1.765-1.875-1.893-.02-.059-.03-.273-.023-.49.008-.315.023-.411.078-.517.13-.25 1.32-1.355 2.098-1.946 1.24-.943 2.918-1.818 4.419-2.303 3.377-1.092 7.061-.975 10.324.327 1.211.483 2.539 1.228 3.522 1.976.778.591 1.968 1.695 2.098 1.946.055.106.07.202.078.516.006.218-.005.432-.024.491-.045.138-1.742 1.84-1.9 1.906-.147.061-.458.06-.617-.004-.085-.034-.234-.166-.454-.402-1.158-1.244-2.838-2.308-4.57-2.896-1.261-.428-2.373-.61-3.744-.61-1.37 0-2.482.182-3.742.61-1.734.588-3.413 1.652-4.571 2.896-.22.236-.37.368-.455.402-.17.068-.498.063-.642-.009zm-4.738-4.758c-.188-.085-1.773-1.69-1.823-1.846-.022-.069-.033-.27-.027-.501.008-.315.023-.41.078-.516.1-.191 1.123-1.176 1.885-1.814a21.744 21.744 0 0 1 10.899-4.877c1.227-.175 1.563-.196 3.136-.196 1.574 0 1.91.02 3.137.196a21.744 21.744 0 0 1 10.899 4.877c.762.638 1.785 1.623 1.885 1.814.055.105.069.201.078.516.006.231-.005.432-.027.501-.053.166-1.638 1.763-1.834 1.849a.956.956 0 0 1-.68-.004c-.089-.041-.328-.249-.662-.575-1.42-1.389-2.82-2.395-4.549-3.271-2.14-1.084-4.258-1.681-6.791-1.915-.946-.087-2.644-.047-3.735.088-2.084.26-4.077.87-5.967 1.827-1.729.876-3.129 1.882-4.549 3.27-.334.327-.573.535-.663.575a.998.998 0 0 1-.69.002z" style="fill:#000;stroke:none" transform="translate(-135.86 -153.006)"/></svg>